<mxfile host="app.diagrams.net" modified="2023-08-16T00:31:34.645Z" agent="Mozilla/5.0 (Windows NT 10.0; Win64; x64) AppleWebKit/537.36 (KHTML, like Gecko) Chrome/115.0.0.0 Safari/537.36" version="21.6.8" etag="sbWYFf82vHBIqQIOnWBj" type="github">
  <diagram name="PÃ¡gina-1" id="olMcP9tCm9c6-cUv3aZL">
    <mxGraphModel>
      <root>
        <mxCell id="0" />
        <mxCell id="1" parent="0" />
      </root>
    </mxGraphModel>
  </diagram>
</mxfile>
